<?xml version="1.0" standalone="no"?>
<!DOCTYPE svg PUBLIC "-//W3C//DTD SVG 20010904//EN"
 "http://www.w3.org/TR/2001/REC-SVG-20010904/DTD/svg10.dtd">
<svg version="1.0" xmlns="http://www.w3.org/2000/svg"
 width="536.000000pt" height="167.000000pt" viewBox="0 0 536.000000 167.000000"
 preserveAspectRatio="xMidYMid meet">

<g transform="translate(0.000000,167.000000) scale(0.100000,-0.100000)"
fill="#000000" stroke="none">
<path d="M787 1194 c-8 -16 -40 -95 -72 -176 -55 -144 -58 -148 -86 -148 -16
0 -29 -4 -29 -10 0 -6 30 -10 71 -10 44 0 68 4 64 10 -3 6 -17 10 -30 10 l-25
0 19 48 19 47 69 3 70 3 16 -43 c22 -56 22 -58 -7 -58 -14 0 -28 -4 -31 -10
-4 -7 55 -10 169 -10 111 0 176 4 176 10 0 6 -13 10 -30 10 l-30 0 0 75 0 75
58 0 c73 0 89 -15 98 -93 5 -42 13 -62 28 -72 23 -17 92 -20 101 -5 4 6 -7 10
-25 10 -35 0 -43 14 -57 95 -7 42 -13 52 -40 66 l-32 16 30 22 c22 17 29 29
29 57 0 48 -14 70 -51 83 -41 14 -263 15 -254 1 3 -5 19 -10 36 -10 l29 0 0
-159 0 -159 -37 -4 c-80 -10 -82 -7 -151 173 -35 90 -67 168 -72 173 -5 4 -15
-4 -23 -20z m453 -24 c26 -26 26 -81 0 -105 -11 -10 -42 -20 -70 -23 l-50 -5
0 77 0 76 50 0 c37 0 55 -5 70 -20z m-421 -87 c12 -38 25 -74 28 -80 3 -10
-12 -13 -57 -13 -46 0 -61 3 -58 13 3 6 16 42 29 80 13 37 26 67 29 67 4 0 16
-30 29 -67z"/>
<path d="M1560 1211 c-53 -17 -90 -43 -115 -78 -36 -54 -36 -152 0 -206 56
-81 172 -105 300 -63 15 6 14 3 -5 -11 -14 -10 -41 -33 -61 -50 l-36 -33 -789
-2 -789 -3 784 -2 c740 -3 783 -4 776 -21 -16 -41 -17 -78 -1 -91 13 -11 14
-8 9 22 -3 23 0 43 12 61 l17 26 189 0 c148 0 189 -3 189 -13 0 -10 -70 -106
-110 -150 -8 -9 -209 -30 -401 -42 -75 -5 -113 -4 -128 5 -13 6 -25 9 -28 6
-3 -3 6 -11 21 -17 21 -10 62 -10 189 -1 89 7 198 15 242 18 l80 5 -70 -66
c-145 -138 -285 -218 -382 -218 -41 0 -51 -2 -38 -10 27 -14 102 0 174 33 80
38 171 102 278 198 l82 73 172 6 172 6 -42 -53 c-78 -98 -101 -171 -64 -201
15 -12 16 -12 9 6 -5 11 -8 31 -7 45 1 26 51 106 102 164 34 39 50 41 137 14
l32 -10 -31 -29 c-37 -34 -34 -53 9 -57 24 -2 34 2 47 21 8 13 13 31 10 38 -5
12 13 15 100 15 58 1 105 -1 105 -2 0 -2 -18 -27 -40 -56 -22 -29 -40 -56 -40
-60 0 -4 24 7 53 26 82 52 194 106 222 106 34 0 32 -21 -5 -75 -39 -56 -38
-74 1 -40 64 53 180 98 194 75 4 -6 1 -25 -6 -42 -10 -25 -10 -31 2 -39 21
-14 95 -2 194 31 49 17 90 30 92 30 2 0 1 -10 -2 -23 -10 -39 15 -51 98 -44
68 6 201 43 258 73 25 13 27 12 33 -11 4 -14 4 -36 0 -49 -5 -22 -15 -26 -77
-36 -116 -19 -130 -28 -42 -25 54 1 96 8 130 23 28 11 89 35 137 52 89 33 154
67 145 76 -3 3 -34 -9 -68 -27 -59 -29 -200 -82 -204 -76 -6 8 13 129 22 138
13 13 50 15 78 5 20 -8 20 -7 1 8 -37 30 -116 9 -116 -30 0 -32 -239 -114
-331 -114 -46 0 -56 13 -35 44 12 19 26 24 71 28 32 3 63 11 72 20 14 15 13
17 -5 27 -16 9 -30 8 -59 -3 -182 -67 -242 -88 -299 -102 -77 -20 -94 -12 -70
33 31 60 -31 71 -133 23 l-64 -30 17 24 c23 36 20 65 -6 71 -37 9 -111 -21
-228 -94 l-25 -15 20 24 c11 14 30 37 44 52 29 33 24 43 -14 28 -56 -21 -205
-13 -318 17 l-68 18 79 78 80 77 1433 2 1434 3 -1417 2 c-780 2 -1418 7 -1418
12 0 17 118 71 156 71 22 0 46 5 54 10 11 7 4 10 -27 10 l-43 0 0 160 0 160
30 0 c17 0 30 5 30 10 0 7 -22 10 -55 8 l-56 -3 -46 -100 c-25 -55 -56 -125
-69 -155 l-25 -54 -73 154 -74 155 -56 3 c-34 2 -56 -1 -56 -8 0 -5 14 -10 30
-10 l30 0 0 -160 0 -160 -30 0 c-16 0 -30 -4 -30 -10 0 -6 30 -10 71 -10 44 0
68 4 64 10 -3 6 -17 10 -31 10 l-24 0 1 143 0 142 80 -159 c45 -89 84 -155 89
-150 5 5 40 77 79 159 l71 150 0 -142 0 -143 -24 0 c-14 0 -28 -4 -31 -10 -3
-6 4 -10 16 -10 16 0 6 -11 -40 -40 l-62 -40 -189 0 -190 0 6 40 c4 21 3 51 0
65 -8 33 -61 65 -108 65 l-38 0 0 125 0 125 30 0 c17 0 30 5 30 10 0 6 -37 10
-91 10 -57 0 -88 -4 -84 -10 3 -5 19 -10 36 -10 l29 0 0 -129 0 -130 -56 -25
c-31 -14 -58 -26 -60 -26 -2 0 -4 25 -4 55 0 64 -15 73 -24 15 -8 -50 -37 -77
-92 -86 -97 -14 -162 24 -184 107 -34 125 34 229 150 229 67 0 113 -27 123
-72 13 -53 27 -47 27 11 0 46 -2 50 -32 61 -43 15 -156 22 -188 11z m480 -296
c36 -19 46 -54 31 -106 l-12 -39 -184 0 c-107 0 -185 4 -185 9 0 22 127 107
188 126 18 5 22 2 22 -14 0 -17 -6 -21 -30 -21 -16 0 -30 -4 -30 -10 0 -6 35
-10 85 -10 50 0 85 4 85 10 0 6 -13 10 -30 10 -27 0 -30 3 -30 30 0 27 3 30
30 30 17 0 44 -7 60 -15z m409 -162 c-1 -5 -36 -40 -78 -79 l-76 -72 -167 -4
-168 -4 25 30 c14 17 42 55 62 84 l36 52 183 0 c101 0 183 -3 183 -7z m1076
-212 c-14 -12 -75 -22 -75 -11 0 10 23 17 60 19 14 1 20 -3 15 -8z m-1058 -48
c-8 -8 -23 -13 -33 -11 -17 3 -16 7 11 33 26 27 30 28 33 11 2 -10 -3 -25 -11
-33z"/>
<path d="M4154 1210 c-88 -20 -144 -93 -144 -186 0 -66 33 -122 90 -154 61
-34 175 -35 238 -2 l42 22 0 60 c0 60 0 60 30 60 17 0 30 5 30 10 0 6 -35 10
-85 10 -50 0 -85 -4 -85 -10 0 -5 14 -10 30 -10 30 0 30 -1 30 -53 0 -66 -18
-85 -87 -94 -38 -4 -61 -1 -95 14 -57 26 -78 67 -78 155 0 118 54 172 167 166
72 -4 99 -23 109 -74 10 -53 25 -40 22 18 l-3 52 -50 13 c-55 14 -112 15 -161
3z"/>
<path d="M75 1200 c3 -5 17 -10 31 -10 l24 0 0 -160 0 -160 -25 0 c-14 0 -25
-4 -25 -10 0 -6 28 -10 65 -10 37 0 65 4 65 10 0 6 -13 10 -30 10 l-30 0 1
148 0 147 82 -162 c45 -90 85 -163 88 -163 3 0 37 66 74 148 37 81 72 151 76
156 5 6 9 -53 9 -132 l0 -142 -30 0 c-16 0 -30 -4 -30 -10 0 -6 35 -10 85 -10
50 0 85 4 85 10 0 6 -13 10 -30 10 l-30 0 0 160 0 160 24 0 c14 0 28 5 31 10
4 6 -16 10 -52 10 l-58 0 -70 -157 -70 -157 -75 157 -75 157 -58 0 c-36 0 -56
-4 -52 -10z"/>
<path d="M2785 1200 c3 -5 17 -10 31 -10 l24 0 0 -160 0 -160 -30 0 c-16 0
-30 -4 -30 -10 0 -6 68 -10 185 -10 l185 0 0 60 c0 33 -4 60 -10 60 -5 0 -10
-12 -10 -28 0 -15 -7 -38 -16 -50 -14 -20 -23 -22 -120 -22 l-104 0 0 80 0 80
48 0 c57 0 68 -7 77 -43 13 -50 25 -27 25 48 0 76 -13 100 -25 46 -6 -26 -11
-30 -55 -36 -27 -4 -54 -4 -60 0 -5 3 -10 37 -10 76 l0 69 100 0 c109 0 120
-6 120 -65 0 -15 4 -24 10 -20 6 3 10 28 10 56 l0 49 -176 0 c-114 0 -173 -3
-169 -10z"/>
<path d="M3200 1155 c0 -30 5 -55 10 -55 6 0 10 10 10 23 0 12 7 33 16 45 12
18 25 22 70 22 l54 0 0 -160 0 -160 -29 0 c-17 0 -33 -4 -36 -10 -4 -6 27 -10
84 -10 54 0 91 4 91 10 0 6 -13 10 -30 10 l-30 0 0 160 0 160 54 0 c58 0 66
-5 75 -53 12 -55 31 -44 31 17 l0 56 -185 0 -185 0 0 -55z"/>
<path d="M3620 1150 c0 -33 4 -60 10 -60 6 0 10 13 10 29 0 16 8 38 18 50 16
20 25 22 110 19 l94 -3 -126 -159 c-69 -88 -126 -163 -126 -168 0 -5 78 -7
173 -6 l172 3 3 70 c3 75 -7 78 -27 8 -6 -24 -21 -47 -31 -53 -12 -6 -65 -9
-125 -8 l-106 3 131 164 c71 90 130 166 130 168 0 1 -70 3 -155 3 l-155 0 0
-60z"/>
<path d="M4465 1200 c3 -5 17 -10 31 -10 l24 0 0 -160 0 -160 -30 0 c-16 0
-30 -4 -30 -10 0 -6 68 -10 185 -10 l185 0 0 60 c0 33 -4 60 -10 60 -5 0 -10
-15 -10 -33 0 -57 -22 -67 -138 -67 l-102 0 0 80 0 80 49 0 c53 0 81 -17 81
-51 0 -10 5 -19 10 -19 6 0 10 32 10 75 0 75 -12 100 -23 46 -6 -26 -11 -30
-56 -36 -28 -4 -55 -4 -61 0 -5 3 -10 37 -10 76 l0 69 100 0 c109 0 120 -6
120 -65 0 -15 4 -24 10 -20 6 3 10 28 10 56 l0 49 -176 0 c-114 0 -173 -3
-169 -10z"/>
<path d="M4890 1200 c0 -5 14 -10 30 -10 l30 0 0 -160 0 -160 -30 0 c-16 0
-30 -4 -30 -10 0 -6 37 -10 91 -10 57 0 88 4 84 10 -3 6 -19 10 -36 10 l-29 0
0 75 0 75 58 0 c78 0 93 -13 103 -86 9 -70 32 -94 90 -94 29 0 39 4 39 16 0 8
-5 12 -11 9 -5 -4 -21 -4 -33 -1 -20 5 -25 14 -30 60 -8 58 -36 106 -64 106
-13 0 -10 6 10 25 51 48 46 113 -12 142 -31 16 -260 18 -260 3z m232 -27 c18
-16 25 -77 10 -99 -13 -20 -50 -34 -91 -34 l-41 0 0 75 0 75 52 0 c34 0 58 -6
70 -17z"/>
</g>
</svg>
